<svg width="62" height="59" viewBox="0 0 62 59" fill="none" xmlns="http://www.w3.org/2000/svg">
<path d="M56.3916 14.0979H44.6434C44.6434 10.3589 43.158 6.77305 40.5142 4.12918C37.8703 1.48531 34.2845 0 30.5455 0C26.8065 0 23.2206 1.48531 20.5767 4.12918C17.9329 6.77305 16.4476 10.3589 16.4476 14.0979H4.6993C3.45297 14.0979 2.25768 14.593 1.37639 15.4743C0.495103 16.3556 0 17.5509 0 18.7972V54.042C0 55.2883 0.495103 56.4836 1.37639 57.3649C2.25768 58.2462 3.45297 58.7413 4.6993 58.7413H56.3916C57.6379 58.7413 58.8332 58.2462 59.7145 57.3649C60.5958 56.4836 61.0909 55.2883 61.0909 54.042V18.7972C61.0909 17.5509 60.5958 16.3556 59.7145 15.4743C58.8332 14.593 57.6379 14.0979 56.3916 14.0979ZM30.5455 4.6993C33.0381 4.6993 35.4287 5.68951 37.1913 7.45209C38.9538 9.21467 39.9441 11.6052 39.9441 14.0979H21.1469C21.1469 11.6052 22.1371 9.21467 23.8996 7.45209C25.6622 5.68951 28.0528 4.6993 30.5455 4.6993ZM56.3916 54.042H4.6993V18.7972H16.4476V23.4965C16.4476 24.1197 16.6951 24.7173 17.1357 25.158C17.5764 25.5986 18.174 25.8462 18.7972 25.8462C19.4204 25.8462 20.018 25.5986 20.4587 25.158C20.8993 24.7173 21.1469 24.1197 21.1469 23.4965V18.7972H39.9441V23.4965C39.9441 24.1197 40.1916 24.7173 40.6323 25.158C41.0729 25.5986 41.6705 25.8462 42.2937 25.8462C42.9169 25.8462 43.5145 25.5986 43.9552 25.158C44.3958 24.7173 44.6434 24.1197 44.6434 23.4965V18.7972H56.3916V54.042Z" fill="black"/>
</svg>
