<svg width="17" height="10" viewBox="0 0 17 10" fill="none" xmlns="http://www.w3.org/2000/svg">
<path d="M8.68018 9.98973C8.48587 9.98973 8.29739 9.9533 8.11474 9.88043C7.9321 9.80757 7.78053 9.71041 7.66006 9.58897L0.956424 2.88533C0.68925 2.61816 0.555664 2.27812 0.555664 1.86521C0.555664 1.45231 0.68925 1.11227 0.956424 0.845096C1.2236 0.577922 1.56364 0.444336 1.97654 0.444336C2.38945 0.444336 2.72949 0.577922 2.99666 0.845096L8.68018 6.52862L14.3637 0.845096C14.6309 0.577922 14.9709 0.444336 15.3838 0.444336C15.7967 0.444336 16.1368 0.577922 16.4039 0.845096C16.6711 1.11227 16.8047 1.45231 16.8047 1.86521C16.8047 2.27812 16.6711 2.61816 16.4039 2.88533L9.7003 9.58897C9.55457 9.7347 9.39669 9.83817 9.22667 9.89938C9.05665 9.96059 8.87449 9.99071 8.68018 9.98973Z" fill="black"/>
</svg>
