<svg width="46" height="36" viewBox="0 0 46 36" fill="none" xmlns="http://www.w3.org/2000/svg">
<path d="M3.44434 10.5003C2.73601 10.5003 2.14184 10.2603 1.66184 9.78025C1.18184 9.30025 0.942678 8.70692 0.944345 8.00025V3.00025C0.944345 2.29192 1.18434 1.69775 1.66434 1.21775C2.14434 0.737753 2.73768 0.498586 3.44434 0.500253H8.44434C9.15268 0.500253 9.74684 0.740253 10.2268 1.22025C10.7068 1.70025 10.946 2.29359 10.9443 3.00025V8.00025C10.9443 8.70859 10.7043 9.30275 10.2243 9.78275C9.74434 10.2628 9.15101 10.5019 8.44434 10.5003H3.44434ZM15.9443 10.5003C15.236 10.5003 14.6418 10.2603 14.1618 9.78025C13.6818 9.30025 13.4427 8.70692 13.4443 8.00025V3.00025C13.4443 2.29192 13.6843 1.69775 14.1643 1.21775C14.6443 0.737753 15.2377 0.498586 15.9443 0.500253H43.4443C44.1527 0.500253 44.7468 0.740253 45.2268 1.22025C45.7068 1.70025 45.946 2.29359 45.9443 3.00025V8.00025C45.9443 8.70859 45.7043 9.30275 45.2243 9.78275C44.7443 10.2628 44.151 10.5019 43.4443 10.5003H15.9443ZM15.9443 23.0003C15.236 23.0003 14.6418 22.7603 14.1618 22.2803C13.6818 21.8003 13.4427 21.2069 13.4443 20.5003V15.5003C13.4443 14.7919 13.6843 14.1978 14.1643 13.7178C14.6443 13.2378 15.2377 12.9986 15.9443 13.0003H43.4443C44.1527 13.0003 44.7468 13.2403 45.2268 13.7203C45.7068 14.2003 45.946 14.7936 45.9443 15.5003V20.5003C45.9443 21.2086 45.7043 21.8028 45.2243 22.2828C44.7443 22.7628 44.151 23.0019 43.4443 23.0003H15.9443ZM3.44434 23.0003C2.73601 23.0003 2.14184 22.7603 1.66184 22.2803C1.18184 21.8003 0.942678 21.2069 0.944345 20.5003V15.5003C0.944345 14.7919 1.18434 14.1978 1.66434 13.7178C2.14434 13.2378 2.73768 12.9986 3.44434 13.0003H8.44434C9.15268 13.0003 9.74684 13.2403 10.2268 13.7203C10.7068 14.2003 10.946 14.7936 10.9443 15.5003V20.5003C10.9443 21.2086 10.7043 21.8028 10.2243 22.2828C9.74434 22.7628 9.15101 23.0019 8.44434 23.0003H3.44434ZM15.9443 35.5003C15.236 35.5003 14.6418 35.2603 14.1618 34.7803C13.6818 34.3003 13.4427 33.7069 13.4443 33.0003V28.0003C13.4443 27.2919 13.6843 26.6978 14.1643 26.2178C14.6443 25.7378 15.2377 25.4986 15.9443 25.5003H43.4443C44.1527 25.5003 44.7468 25.7403 45.2268 26.2203C45.7068 26.7003 45.946 27.2936 45.9443 28.0003V33.0003C45.9443 33.7086 45.7043 34.3028 45.2243 34.7828C44.7443 35.2628 44.151 35.5019 43.4443 35.5003H15.9443ZM3.44434 35.5003C2.73601 35.5003 2.14184 35.2603 1.66184 34.7803C1.18184 34.3003 0.942678 33.7069 0.944345 33.0003V28.0003C0.944345 27.2919 1.18434 26.6978 1.66434 26.2178C2.14434 25.7378 2.73768 25.4986 3.44434 25.5003H8.44434C9.15268 25.5003 9.74684 25.7403 10.2268 26.2203C10.7068 26.7003 10.946 27.2936 10.9443 28.0003V33.0003C10.9443 33.7086 10.7043 34.3028 10.2243 34.7828C9.74434 35.2628 9.15101 35.5019 8.44434 35.5003H3.44434Z" fill="black"/>
</svg>
