<svg width="37" height="38" viewBox="0 0 37 38" fill="none" xmlns="http://www.w3.org/2000/svg">
<path d="M4.18541 16.9628C3.06504 16.9628 2.10559 16.5635 1.30707 15.765C0.508554 14.9665 0.109974 14.0077 0.111332 12.8887V4.74058C0.111332 3.62021 0.510591 2.66077 1.30911 1.86225C2.10763 1.06373 3.06639 0.665149 4.18541 0.666507H12.3336C13.4539 0.666507 14.4134 1.06577 15.2119 1.86429C16.0104 2.6628 16.409 3.62157 16.4076 4.74058V12.8887C16.4076 14.0091 16.0084 14.9685 15.2099 15.7671C14.4113 16.5656 13.4526 16.9642 12.3336 16.9628H4.18541ZM4.18541 37.3332C3.06504 37.3332 2.10559 36.9339 1.30707 36.1354C0.508554 35.3369 0.109974 34.3781 0.111332 33.2591V25.111C0.111332 23.9906 0.510591 23.0311 1.30911 22.2326C2.10763 21.4341 3.06639 21.0355 4.18541 21.0369H12.3336C13.4539 21.0369 14.4134 21.4361 15.2119 22.2347C16.0104 23.0332 16.409 23.9919 16.4076 25.111V33.2591C16.4076 34.3795 16.0084 35.3389 15.2099 36.1374C14.4113 36.936 13.4526 37.3345 12.3336 37.3332H4.18541ZM24.5558 16.9628C23.4354 16.9628 22.476 16.5635 21.6774 15.765C20.8789 14.9665 20.4803 14.0077 20.4817 12.8887V4.74058C20.4817 3.62021 20.881 2.66077 21.6795 1.86225C22.478 1.06373 23.4368 0.665149 24.5558 0.666507H32.7039C33.8243 0.666507 34.7837 1.06577 35.5823 1.86429C36.3808 2.6628 36.7794 3.62157 36.778 4.74058V12.8887C36.778 14.0091 36.3787 14.9685 35.5802 15.7671C34.7817 16.5656 33.8229 16.9642 32.7039 16.9628H24.5558ZM24.5558 37.3332C23.4354 37.3332 22.476 36.9339 21.6774 36.1354C20.8789 35.3369 20.4803 34.3781 20.4817 33.2591V25.111C20.4817 23.9906 20.881 23.0311 21.6795 22.2326C22.478 21.4341 23.4368 21.0355 24.5558 21.0369H32.7039C33.8243 21.0369 34.7837 21.4361 35.5823 22.2347C36.3808 23.0332 36.7794 23.9919 36.778 25.111V33.2591C36.778 34.3795 36.3787 35.3389 35.5802 36.1374C34.7817 36.936 33.8229 37.3345 32.7039 37.3332H24.5558Z" fill="black"/>
</svg>
