<svg width="37" height="38" viewBox="0 0 37 38" fill="none" xmlns="http://www.w3.org/2000/svg">
<path d="M0.861087 12.8899V12.889V4.74083C0.861087 3.82114 1.18007 3.05195 1.8392 2.39282C2.49829 1.73373 3.26651 1.41564 4.18425 1.41675H4.18516H12.3333C13.253 1.41675 14.0222 1.73574 14.6813 2.39486C15.3404 3.05396 15.6585 3.82218 15.6574 4.73992V4.74083V12.889C15.6574 13.8087 15.3384 14.5779 14.6793 15.237C14.0202 15.8961 13.252 16.2142 12.3342 16.213H12.3333H4.18516C3.26548 16.213 2.49628 15.8941 1.83716 15.2349C1.17806 14.5758 0.859973 13.8076 0.861087 12.8899ZM0.861087 33.2603V33.2593V25.1112C0.861087 24.1915 1.18007 23.4223 1.8392 22.7632C2.49829 22.1041 3.26651 21.786 4.18425 21.7871H4.18516H12.3333C13.253 21.7871 14.0222 22.1061 14.6813 22.7652C15.3404 23.4243 15.6585 24.1925 15.6574 25.1103V25.1112V33.2593C15.6574 34.179 15.3384 34.9482 14.6793 35.6073C14.0202 36.2664 13.252 36.5845 12.3342 36.5834H12.3333H4.18516C3.26547 36.5834 2.49628 36.2644 1.83716 35.6053C1.17806 34.9462 0.859973 34.178 0.861087 33.2603ZM21.2315 12.8899V12.889V4.74083C21.2315 3.82114 21.5504 3.05195 22.2096 2.39282C22.8687 1.73373 23.6369 1.41564 24.5546 1.41675H24.5555H32.7037C33.6234 1.41675 34.3926 1.73574 35.0517 2.39486C35.7108 3.05396 36.0289 3.82218 36.0278 4.73992V4.74083V12.889C36.0278 13.8087 35.7088 14.5779 35.0496 15.237C34.3906 15.8961 33.6223 16.2142 32.7046 16.213H32.7037H24.5555C23.6358 16.213 22.8667 15.8941 22.2075 15.2349C21.5484 14.5758 21.2303 13.8076 21.2315 12.8899ZM21.2315 33.2603V33.2593V25.1112C21.2315 24.1915 21.5504 23.4223 22.2096 22.7632C22.8687 22.1041 23.6369 21.786 24.5546 21.7871H24.5555H32.7037C33.6234 21.7871 34.3926 22.1061 35.0517 22.7652C35.7108 23.4243 36.0289 24.1925 36.0278 25.1103V25.1112V33.2593C36.0278 34.179 35.7088 34.9482 35.0496 35.6073C34.3906 36.2664 33.6223 36.5845 32.7046 36.5834H32.7037H24.5555C23.6358 36.5834 22.8667 36.2644 22.2075 35.6053C21.5484 34.9462 21.2303 34.178 21.2315 33.2603Z" fill="white" stroke="black" stroke-width="1.5"/>
</svg>
