<svg width="46" height="36" viewBox="0 0 46 36" fill="none" xmlns="http://www.w3.org/2000/svg">
<mask id="path-1-inside-1_1_213" fill="white">
<path d="M3.44434 10.5004C2.73601 10.5004 2.14184 10.2604 1.66184 9.78036C1.18184 9.30036 0.942678 8.70703 0.944345 8.00036V3.00036C0.944345 2.29203 1.18434 1.69786 1.66434 1.21786C2.14434 0.73786 2.73768 0.498693 3.44434 0.50036H8.44434C9.15268 0.50036 9.74684 0.74036 10.2268 1.22036C10.7068 1.70036 10.946 2.29369 10.9443 3.00036V8.00036C10.9443 8.70869 10.7043 9.30286 10.2243 9.78286C9.74434 10.2629 9.15101 10.502 8.44434 10.5004H3.44434ZM15.9443 10.5004C15.236 10.5004 14.6418 10.2604 14.1618 9.78036C13.6818 9.30036 13.4427 8.70703 13.4443 8.00036V3.00036C13.4443 2.29203 13.6843 1.69786 14.1643 1.21786C14.6443 0.73786 15.2377 0.498693 15.9443 0.50036H43.4443C44.1527 0.50036 44.7468 0.74036 45.2268 1.22036C45.7068 1.70036 45.946 2.29369 45.9443 3.00036V8.00036C45.9443 8.70869 45.7043 9.30286 45.2243 9.78286C44.7443 10.2629 44.151 10.502 43.4443 10.5004H15.9443ZM15.9443 23.0004C15.236 23.0004 14.6418 22.7604 14.1618 22.2804C13.6818 21.8004 13.4427 21.207 13.4443 20.5004V15.5004C13.4443 14.792 13.6843 14.1979 14.1643 13.7179C14.6443 13.2379 15.2377 12.9987 15.9443 13.0004H43.4443C44.1527 13.0004 44.7468 13.2404 45.2268 13.7204C45.7068 14.2004 45.946 14.7937 45.9443 15.5004V20.5004C45.9443 21.2087 45.7043 21.8029 45.2243 22.2829C44.7443 22.7629 44.151 23.002 43.4443 23.0004H15.9443ZM3.44434 23.0004C2.73601 23.0004 2.14184 22.7604 1.66184 22.2804C1.18184 21.8004 0.942678 21.207 0.944345 20.5004V15.5004C0.944345 14.792 1.18434 14.1979 1.66434 13.7179C2.14434 13.2379 2.73768 12.9987 3.44434 13.0004H8.44434C9.15268 13.0004 9.74684 13.2404 10.2268 13.7204C10.7068 14.2004 10.946 14.7937 10.9443 15.5004V20.5004C10.9443 21.2087 10.7043 21.8029 10.2243 22.2829C9.74434 22.7629 9.15101 23.002 8.44434 23.0004H3.44434ZM15.9443 35.5004C15.236 35.5004 14.6418 35.2604 14.1618 34.7804C13.6818 34.3004 13.4427 33.707 13.4443 33.0004V28.0004C13.4443 27.292 13.6843 26.6979 14.1643 26.2179C14.6443 25.7379 15.2377 25.4987 15.9443 25.5004H43.4443C44.1527 25.5004 44.7468 25.7404 45.2268 26.2204C45.7068 26.7004 45.946 27.2937 45.9443 28.0004V33.0004C45.9443 33.7087 45.7043 34.3029 45.2243 34.7829C44.7443 35.2629 44.151 35.502 43.4443 35.5004H15.9443ZM3.44434 35.5004C2.73601 35.5004 2.14184 35.2604 1.66184 34.7804C1.18184 34.3004 0.942678 33.707 0.944345 33.0004V28.0004C0.944345 27.292 1.18434 26.6979 1.66434 26.2179C2.14434 25.7379 2.73768 25.4987 3.44434 25.5004H8.44434C9.15268 25.5004 9.74684 25.7404 10.2268 26.2204C10.7068 26.7004 10.946 27.2937 10.9443 28.0004V33.0004C10.9443 33.7087 10.7043 34.3029 10.2243 34.7829C9.74434 35.2629 9.15101 35.502 8.44434 35.5004H3.44434Z"/>
</mask>
<path d="M3.44434 10.5004C2.73601 10.5004 2.14184 10.2604 1.66184 9.78036C1.18184 9.30036 0.942678 8.70703 0.944345 8.00036V3.00036C0.944345 2.29203 1.18434 1.69786 1.66434 1.21786C2.14434 0.73786 2.73768 0.498693 3.44434 0.50036H8.44434C9.15268 0.50036 9.74684 0.74036 10.2268 1.22036C10.7068 1.70036 10.946 2.29369 10.9443 3.00036V8.00036C10.9443 8.70869 10.7043 9.30286 10.2243 9.78286C9.74434 10.2629 9.15101 10.502 8.44434 10.5004H3.44434ZM15.9443 10.5004C15.236 10.5004 14.6418 10.2604 14.1618 9.78036C13.6818 9.30036 13.4427 8.70703 13.4443 8.00036V3.00036C13.4443 2.29203 13.6843 1.69786 14.1643 1.21786C14.6443 0.73786 15.2377 0.498693 15.9443 0.50036H43.4443C44.1527 0.50036 44.7468 0.74036 45.2268 1.22036C45.7068 1.70036 45.946 2.29369 45.9443 3.00036V8.00036C45.9443 8.70869 45.7043 9.30286 45.2243 9.78286C44.7443 10.2629 44.151 10.502 43.4443 10.5004H15.9443ZM15.9443 23.0004C15.236 23.0004 14.6418 22.7604 14.1618 22.2804C13.6818 21.8004 13.4427 21.207 13.4443 20.5004V15.5004C13.4443 14.792 13.6843 14.1979 14.1643 13.7179C14.6443 13.2379 15.2377 12.9987 15.9443 13.0004H43.4443C44.1527 13.0004 44.7468 13.2404 45.2268 13.7204C45.7068 14.2004 45.946 14.7937 45.9443 15.5004V20.5004C45.9443 21.2087 45.7043 21.8029 45.2243 22.2829C44.7443 22.7629 44.151 23.002 43.4443 23.0004H15.9443ZM3.44434 23.0004C2.73601 23.0004 2.14184 22.7604 1.66184 22.2804C1.18184 21.8004 0.942678 21.207 0.944345 20.5004V15.5004C0.944345 14.792 1.18434 14.1979 1.66434 13.7179C2.14434 13.2379 2.73768 12.9987 3.44434 13.0004H8.44434C9.15268 13.0004 9.74684 13.2404 10.2268 13.7204C10.7068 14.2004 10.946 14.7937 10.9443 15.5004V20.5004C10.9443 21.2087 10.7043 21.8029 10.2243 22.2829C9.74434 22.7629 9.15101 23.002 8.44434 23.0004H3.44434ZM15.9443 35.5004C15.236 35.5004 14.6418 35.2604 14.1618 34.7804C13.6818 34.3004 13.4427 33.707 13.4443 33.0004V28.0004C13.4443 27.292 13.6843 26.6979 14.1643 26.2179C14.6443 25.7379 15.2377 25.4987 15.9443 25.5004H43.4443C44.1527 25.5004 44.7468 25.7404 45.2268 26.2204C45.7068 26.7004 45.946 27.2937 45.9443 28.0004V33.0004C45.9443 33.7087 45.7043 34.3029 45.2243 34.7829C44.7443 35.2629 44.151 35.502 43.4443 35.5004H15.9443ZM3.44434 35.5004C2.73601 35.5004 2.14184 35.2604 1.66184 34.7804C1.18184 34.3004 0.942678 33.707 0.944345 33.0004V28.0004C0.944345 27.292 1.18434 26.6979 1.66434 26.2179C2.14434 25.7379 2.73768 25.4987 3.44434 25.5004H8.44434C9.15268 25.5004 9.74684 25.7404 10.2268 26.2204C10.7068 26.7004 10.946 27.2937 10.9443 28.0004V33.0004C10.9443 33.7087 10.7043 34.3029 10.2243 34.7829C9.74434 35.2629 9.15101 35.502 8.44434 35.5004H3.44434Z" fill="white" stroke="black" stroke-width="3.11111" mask="url(#path-1-inside-1_1_213)"/>
</svg>
