<svg width="33" height="33" viewBox="0 0 33 33" fill="none" xmlns="http://www.w3.org/2000/svg">
<path d="M19.8774 4.95642C19.9035 4.85821 19.9488 4.76612 20.0106 4.68542C20.0724 4.60472 20.1495 4.53699 20.2375 4.48611C20.3255 4.43523 20.4227 4.40219 20.5235 4.38889C20.6242 4.37558 20.7266 4.38227 20.8248 4.40857C22.6929 4.89586 24.3973 5.87238 25.7625 7.23752C27.1276 8.60267 28.1041 10.3071 28.5914 12.1752C28.6177 12.2734 28.6244 12.3758 28.6111 12.4765C28.5978 12.5773 28.5648 12.6745 28.5139 12.7625C28.463 12.8505 28.3953 12.9276 28.3146 12.9894C28.2339 13.0512 28.1418 13.0965 28.0436 13.1226C27.9784 13.14 27.9112 13.1487 27.8438 13.1484C27.6734 13.1485 27.5077 13.0923 27.3725 12.9886C27.2373 12.8849 27.1401 12.7394 27.0961 12.5748C26.6778 10.9701 25.8391 9.50609 24.6665 8.33351C23.4939 7.16093 22.0298 6.32224 20.4252 5.90389C20.327 5.8777 20.2349 5.83241 20.1542 5.77061C20.0735 5.70881 20.0058 5.63171 19.9549 5.54371C19.904 5.45572 19.871 5.35856 19.8577 5.25779C19.8444 5.15701 19.8511 5.05461 19.8774 4.95642ZM19.394 10.0289C21.2695 10.529 22.471 11.7304 22.9711 13.606C23.0151 13.7707 23.1123 13.9161 23.2475 14.0199C23.3827 14.1236 23.5484 14.1798 23.7188 14.1797C23.7862 14.1799 23.8534 14.1712 23.9186 14.1539C24.0168 14.1277 24.1089 14.0824 24.1896 14.0206C24.2703 13.9588 24.338 13.8817 24.3889 13.7937C24.4398 13.7057 24.4728 13.6086 24.4861 13.5078C24.4994 13.407 24.4927 13.3046 24.4664 13.2064C23.8219 10.7946 22.2054 9.1781 19.7936 8.53357C19.6954 8.50733 19.593 8.50069 19.4922 8.51402C19.3915 8.52735 19.2944 8.5604 19.2064 8.61127C19.0287 8.71402 18.8991 8.88313 18.8461 9.08142C18.7931 9.27972 18.8211 9.49094 18.9238 9.66862C19.0265 9.8463 19.1957 9.97589 19.394 10.0289ZM29.6343 22.5328C29.4134 24.2179 28.5865 25.7649 27.308 26.8847C26.0295 28.0044 24.387 28.6203 22.6875 28.6172C12.5942 28.6172 4.38283 20.4058 4.38283 10.3125C4.37957 8.61355 4.9949 6.97153 6.11387 5.69315C7.23284 4.41476 8.77893 3.58744 10.4633 3.36572C10.8511 3.3186 11.2436 3.39855 11.5821 3.59357C11.9205 3.78859 12.1865 4.08814 12.3402 4.44724L15.0601 10.5187C15.1802 10.7936 15.2299 11.0941 15.2047 11.3929C15.1795 11.6918 15.0802 11.9797 14.9158 12.2306C14.8992 12.2561 14.8811 12.2807 14.8616 12.3041L12.1456 15.5345C12.1291 15.568 12.1205 15.6048 12.1205 15.6421C12.1205 15.6794 12.1291 15.7163 12.1456 15.7497C13.133 17.771 15.2522 19.8747 17.3018 20.8609C17.336 20.8765 17.3734 20.8839 17.411 20.8826C17.4486 20.8812 17.4853 20.8711 17.5184 20.8531L20.7011 18.1461C20.7238 18.1263 20.7479 18.1082 20.7733 18.092C21.023 17.9255 21.3104 17.8239 21.6093 17.7964C21.9082 17.769 22.2092 17.8165 22.4851 17.9347L28.5747 20.6637C28.929 20.8207 29.2233 21.0876 29.4142 21.4249C29.605 21.7623 29.6822 22.1521 29.6343 22.5367V22.5328ZM28.1016 22.342C28.1059 22.2881 28.0932 22.2342 28.0652 22.1879C28.0372 22.1417 27.9953 22.1054 27.9456 22.0842L21.8548 19.3553C21.8215 19.3424 21.7858 19.3369 21.7502 19.3391C21.7146 19.3414 21.6799 19.3513 21.6485 19.3681L18.4671 22.0752C18.4439 22.0945 18.4194 22.1126 18.3949 22.1293C18.1354 22.3024 17.8355 22.4052 17.5244 22.4278C17.2133 22.4504 16.9017 22.392 16.6199 22.2582C14.2532 21.1148 11.8942 18.7778 10.7508 16.4329C10.6163 16.1528 10.5564 15.8427 10.577 15.5326C10.5976 15.2225 10.6978 14.923 10.8681 14.6631C10.8847 14.6372 10.9032 14.6126 10.9235 14.5896L13.6383 11.3592C13.6538 11.3254 13.6618 11.2887 13.6618 11.2516C13.6618 11.2144 13.6538 11.1777 13.6383 11.1439L10.9235 5.06728C10.9056 5.01851 10.8734 4.9763 10.8311 4.94616C10.7887 4.91603 10.7383 4.89939 10.6863 4.89842H10.6567C9.34564 5.07282 8.14289 5.71844 7.27303 6.71474C6.40316 7.71104 5.92567 8.98989 5.9297 10.3125C5.9297 19.5525 13.4475 27.0703 22.6875 27.0703C24.0103 27.0743 25.2893 26.5966 26.2856 25.7265C27.282 24.8564 27.9275 23.6533 28.1016 22.342Z" fill="white"/>
</svg>
