<svg width="47" height="47" viewBox="0 0 47 47" fill="none" xmlns="http://www.w3.org/2000/svg">
<path d="M20.2954 5.875C17.4433 5.875 14.6553 6.72074 12.2838 8.30527C9.91243 9.8898 8.06414 12.142 6.97269 14.7769C5.88125 17.4119 5.59568 20.3114 6.15209 23.1086C6.7085 25.9059 8.08191 28.4754 10.0986 30.4921C12.1154 32.5088 14.6848 33.8822 17.4821 34.4387C20.2794 34.9951 23.1788 34.7095 25.8138 33.6181C28.4488 32.5266 30.7009 30.6783 32.2855 28.3069C33.87 25.9355 34.7157 23.1475 34.7157 20.2954C34.7155 16.4709 33.1961 12.8032 30.4919 10.0989C27.7876 7.39461 24.1198 5.87524 20.2954 5.875Z" stroke="#666666" stroke-width="2.9375" stroke-miterlimit="10"/>
<path d="M31.0537 31.0537L41.1247 41.1247" stroke="#666666" stroke-width="2.9375" stroke-miterlimit="10" stroke-linecap="round"/>
</svg>
